
<svg xmlns:rdf="http://www.w3.org/1999/02/22-rdf-syntax-ns#" xmlns="http://www.w3.org/2000/svg" xmlns:cc="http://creativecommons.org/ns#" xmlns:dc="http://purl.org/dc/elements/1.1/" xmlns:svg="http://www.w3.org/2000/svg" id="svg2" viewBox="0 0 1668 1160" version="1.1">
  <g id="layer2" transform="translate(254 -254)">
    <g id="g4113" stroke="#000" transform="translate(-13.78 3.524)">
      <path id="path3070" d="m748.57 752.86c41.43-15.72 140-11.43 191.43-12.86s160.5 10.23 201.4 27.14c41 16.93 134.8 67.66 151.5 72.86 22.8 7.14 41.4 7.14 80 20 38.5 12.86 25.7 32.86 25.7 32.86l-30-4.29-5.8 52.92s37.2 1.37 41.5 15.65c4.3 14.29 5.7 31.43-2.9 41.43-8.5 10.03-14.3-1.43-18.5 12.83-4.3 14.3-2.9 28.6-27.2 27.2-24.3-1.5-98.6 0-98.6 0s-15.7-108.6-98.5-105.74c-82.9 2.85-95.7 105.74-95.7 105.74h-500.04s-5.72-104.31-97.15-105.74c-91.42-1.43-98.57 105.74-98.57 105.74h-65.71l-18.57-38.6c-0.52 0-26.25 0-21.43-17.14 4.65-16.56-4.29-41.43 17.14-41.43s47.14 1.43 47.14 1.43l15.72-44.29-41.43-2.86s34.29-24.28 118.57-32.85c84.29-8.57 157.14-8.57 192.86-31.43 35.71-22.86 137.14-78.57 137.14-78.57z" stroke-width="5" fill="none" transform="translate(-254 254)"/>
      <path id="path3846" d="m282.86 1e3h92.85" stroke-width="2" fill="none" transform="translate(-254 254)"/>
      <path id="path3850" d="m555.71 1e3h517.19" stroke-width="2" fill="none" transform="translate(-254 254)"/>
      <path id="path3852" d="m1245.7 1e3h151.4" stroke-width="2" fill="none" transform="translate(-254 254)"/>
      <path id="path3884" d="m618.57 847.14c15.72-18.57 123.38-81.52 151.43-88.57 29.5-7.41 103-7.14 103-7.14l-7.14 95.71z" stroke-width="5" fill="#f0ffeb" transform="translate(-254 254)"/>
      <path id="path3888" d="m658.57 817.14v28.57" stroke-width="2" fill="none" transform="translate(-254 254)"/>
      <path id="path3892" d="m898.7 752.84-4.29 94.32h207.19c-11.3-20.75-46.6-74.9-72.9-88.57-14.3-10-82.86-4.33-130-5.75z" stroke-width="5" fill="#f0ffeb" transform="translate(-254 254)"/>
      <path id="path3896" d="m1065.7 760s80 84.29 85.7 87.14c5.7 2.86 115.7 1.43 115.7 1.43s-77.1-47.14-102.8-58.57-90-31.43-98.6-30z" stroke-width="5" fill="#f0ffeb" transform="translate(-254 254)"/>
      <path id="path3900" d="m599.64 837.66c-14.08 30.97-18.3 71.79-18.3 94.31s4.22 91.53 22.52 105.53" stroke-width="5" fill="none" transform="translate(-254 254)"/>
      <path id="path3900-6" d="m632.78 993.13c-1.4 5.63-4.04 81.87-6.51 106.97-3.67 18.7-4.98 51.2-6.15 87.3 0 22.5 7.03 80.2 12.66 105.5" stroke-width="5" fill="none"/>
      <path id="path3920" d="m357.53 998.13s15.48-85.87 106.98-85.87c91.49 0 109.79 87.27 109.79 87.27" stroke-width="2" fill="none" transform="translate(-254 254)"/>
      <path id="path3920-5" d="m800.29 1253.5s15.48-85.8 106.98-85.8c91.49 0 109.83 87.2 109.83 87.2" stroke-width="2" fill="none"/>
      <path id="path3940" d="m323.75 943.23h63.34" stroke-width="2" fill="none" transform="translate(-254 254)"/>
      <path id="path3942" d="m1033.2 746.17c18.3 12.67 56.3 50.67 92.9 104.16s8.4 59.12-18.3 74.6c-26.8 15.49-49.3 42.23-67.6 112.57" stroke-width="5" fill="none" transform="translate(-254 254)"/>
      <path id="path3944" d="m1112.8 1196h-129.52" stroke-width="2" fill="none"/>
      <path id="path3946" d="m540.52 941.82h544.78" stroke-width="2" fill="none" transform="translate(-254 254)"/>
      <path id="path3948" d="m1062.7 791.21v54.9" stroke-width="2" fill="none" transform="translate(-254 254)"/>
      <rect id="rect3950" rx="2.9331" ry="7.379" height="14.541" width="41.286" y="1144.9" x="558.65" stroke-width="2" fill="#e6e6e6"/>
      <rect id="rect3950-4" rx="2.9331" ry="7.379" height="14.541" width="41.286" y="1144.9" x="816.24" stroke-width="2" fill="#e6e6e6"/>
      <rect id="rect4014" rx="1.6302" ry="7.692" height="11.738" width="18.776" y="1146.3" x="259.53" stroke-width="2" fill="#ffcb00"/>
    </g>
    <g id="g4451" stroke="#000" transform="translate(-13.78 15.524)">
      <path id="path4141" d="m99.998 388.64-11.712 16.12-18.95-6.16v-19.92l18.95-6.16z" stroke-width="5" fill="none" transform="translate(-37.23 423.95)"/>
      <path id="path4143" d="m31.742 745.02 315.3-111.2" stroke-width="2" fill="none"/>
      <path id="path4145" d="m30.334 888.6 315.31 115.4" stroke-width="2" fill="none"/>
      <path id="path4165" d="m595.41 378.78 140.76 38.01s-8.44 49.22-8.44 71.96v147.62c0 30.97 8.44 78.83 8.44 78.83l-140.76 33.78s-17.24-61.9-17.24-92.9c0.38-33.8 1.76-154.8 2.11-185.8-1.41-30.97 15.13-91.5 15.13-91.5z" stroke-width="5" fill="#f0ffeb" transform="translate(-254 254)"/>
      <path id="path4175" d="m736.17 416.79s94.31 5.63 152.02 5.63c106.98 0 201.31-5.63 201.31-5.63m-1.4 297s-77.4-5.63-199.91-5.63c-68.97 0-152.02 7.04-152.02 7.04" stroke-width="5" fill="none" transform="translate(-254 254)"/>
      <rect id="rect4177" rx="31.19" ry="34.436" height="181.58" width="106.98" y="729.21" x="528.62" stroke-width="2" fill="none"/>
      <path id="path4135-9" d="m345.78 632.78h-294.19l-14.076 102.76-7.038 11.26v142.17l7.038 14.07 15.483 101.36h288.55" stroke-width="5" fill="none"/>
      <path id="path4203" d="m1086.7 416.79s-12.7 47.86-12.7 73.19v146.39c0 25.34 12.7 77.42 12.7 77.42l205.5 38.01h108.4s14-81.64 14-115.43v-147.79c0-38.01-14-109.8-14-109.8h-108.4z" stroke-width="5" fill="none" transform="translate(-254 254)"/>
      <path id="path4205" d="m1097.9 435.09s-8.4 40.82-8.4 56.3v144.98c0 19.71 7 57.72 7 57.72s94.3 26.74 123.9 26.74h42.2v-312.49h-47.8c-25.4 0-116.9 26.75-116.9 26.75z" stroke-width="5" fill="#f0ffeb" transform="translate(-254 254)"/>
      <path id="path4207" d="m1292.2 378.78s30.9 40.83 30.9 111.2v146.39c0 64.75-30.9 116.84-30.9 116.84" stroke-width="2" fill="none" transform="translate(-254 254)"/>
      <path id="path4209" d="m578.52 489.98 32.38-32.37v-40.82 112.61" stroke-width="2" fill="none" transform="translate(-254 254)"/>
      <path id="path4209-7" d="m323.82 865.04 32.37-32.38v-40.82 112.61" stroke-width="2" fill="none"/>
      <path id="path4209-76" d="m1005.1 787.62-32.38-32.37v-40.82 112.6" stroke-width="2" fill="none"/>
      <path id="path4243" d="m595.41 378.78s-42.23 78.83-42.23 111.2v146.39c0 40.82 42.23 114.02 42.23 114.02" stroke-width="2" fill="none" transform="translate(-254 254)"/>
    </g>
    <path id="path4245" d="m-106.79 740.92 1.41-91.5s5.626-23.93-25.34-25.33c-30.97-1.41-26.75 2.81-26.75 2.81l1.41 415.2h28.15c28.156 0 22.53-22.5 22.53-22.5v-95.7c-12.68 0-11.27-9.61-11.27-16.89v-149.2c0.45-18.89 9.86-16.89 9.86-16.89z" stroke="#000" stroke-width="5" fill="none"/>
    <path id="path4247" d="m-155.99 646.16h49.27" stroke="#000" stroke-width="2.2" fill="none"/>
    <path id="path4247-2" d="m-155.14 1020.4h49.27" stroke="#000" stroke-width="2.2" fill="none"/>
    <path id="path4247-1" d="m-156.69 705.06h49.26" stroke="#000" stroke-width="2.2" fill="none"/>
    <path id="path4247-0" d="m-153.88 964.87h49.27" stroke="#000" stroke-width="2.2" fill="none"/>
    <path id="path4281-1" d="m-147.1 703.82v260.41" stroke="#000" stroke-width="2" fill="none"/>
    <path id="path4281-8" d="m-137.24 705.39v260.4" stroke="#000" stroke-width="2" fill="none"/>
    <g id="g4428" stroke="#000" transform="translate(-13.78 15.524)">
      <path id="path3070-9" d="m494.57 641.61c41.43 15.72 140 11.43 191.43 12.86s160.47-10.23 201.43-27.14c40.99-16.93 134.77-67.66 151.47-72.86 22.8-7.14 41.4-7.14 80-20 38.5-12.86 25.7-32.86 25.7-32.86l-30 4.29-5.8-52.92s37.2-1.37 41.5-15.65c4.3-14.29 5.7-31.43-2.9-41.43-8.5-10-14.3 1.43-18.5-12.86-4.3-14.28-2.9-28.57-27.2-27.14s-98.6 0-98.6 0-15.67 108.57-98.53 105.71c-82.86-2.85-95.71-105.71-95.71-105.71h-500s-5.72 104.29-97.15 105.71c-91.42 1.43-98.57-105.71-98.57-105.71h-65.711l-18.572 38.57c-0.515 0-26.243 0-21.428 17.14 4.651 16.57-4.2861 41.43 17.142 41.43 21.429 0 47.143-1.43 47.143-1.43l15.715 44.29-41.429 2.86s34.286 24.28 118.57 32.85c84.29 8.58 157.14 8.58 192.86 31.43 35.71 22.86 137.14 78.57 137.14 78.57z" stroke-width="5" fill="none"/>
      <path id="path3846-2" d="m28.857 394.47h92.853" stroke-width="2" fill="none"/>
      <path id="path3850-6" d="m301.71 394.47h517.15" stroke-width="2" fill="none"/>
      <path id="path3852-6" d="m991.71 394.47h151.39" stroke-width="2" fill="none"/>
      <path id="path3884-4" d="m364.57 547.33c15.72 18.57 123.38 81.52 151.43 88.57 29.5 7.41 103 7.14 103 7.14l-7.14-95.71z" stroke-width="5" fill="#f0ffeb"/>
      <path id="path3888-9" d="m404.57 577.33v-28.57" stroke-width="2" fill="none"/>
      <path id="path3892-5" d="m644.7 641.63-4.29-94.32h207.17c-11.31 20.75-46.62 74.9-72.86 88.57-14.29 10-82.88 4.33-130.02 5.75z" stroke-width="5" fill="#f0ffeb"/>
      <path id="path3896-0" d="m811.71 634.47s80-84.28 85.72-87.14c5.71-2.86 115.67-1.43 115.67-1.43s-77.1 47.14-102.81 58.57c-25.72 11.43-90 31.43-98.58 30z" stroke-width="5" fill="#f0ffeb"/>
      <path id="path3900-4" d="m345.64 556.81c-14.08-30.97-18.3-71.79-18.3-94.31s4.22-91.49 22.52-105.57" stroke-width="5" fill="none"/>
      <path id="path3900-6-8" d="m632.78 655.34c-1.4-5.63-4.04-81.9-6.51-106.93-3.67-18.72-4.98-51.22-6.15-87.32 0-22.52 7.03-80.23 12.66-105.57" stroke-width="5" fill="none"/>
      <path id="path3920-7" d="m103.53 396.34s15.48 85.87 106.98 85.87c91.49 0 109.79-87.27 109.79-87.27" stroke-width="2" fill="none"/>
      <path id="path3920-5-1" d="m800.29 394.94s15.48 85.86 106.98 85.86c91.49 0 109.83-87.27 109.83-87.27" stroke-width="2" fill="none"/>
      <path id="path3940-7" d="m69.747 451.24h63.343" stroke-width="2" fill="none"/>
      <path id="path3942-2" d="m779.17 648.3c18.3-12.66 56.31-50.67 92.91-104.16 36.59-53.49 8.44-59.12-18.3-74.6-26.75-15.48-49.27-42.23-67.57-112.61" stroke-width="5" fill="none"/>
      <path id="path3944-7" d="m1112.8 452.43h-129.52" stroke-width="2" fill="none"/>
      <path id="path3946-2" d="m286.52 452.65h544.74" stroke-width="2" fill="none"/>
      <path id="path3948-2" d="m808.73 603.26v-54.9" stroke-width="2" fill="none"/>
      <rect id="rect3950-6" ry="7.379" rx="2.9331" transform="scale(1,-1)" height="14.541" width="41.286" y="-503.55" x="558.65" stroke-width="2" fill="#e6e6e6"/>
      <rect id="rect3950-4-1" ry="7.379" rx="2.9331" transform="scale(1,-1)" height="14.541" width="41.286" y="-503.55" x="816.24" stroke-width="2" fill="#e6e6e6"/>
      <rect id="rect4014-0" ry="7.692" rx="1.6302" transform="scale(1,-1)" height="11.738" width="18.776" y="-502.15" x="259.53" stroke-width="2" fill="#ffcb00"/>
      <path id="path4335" d="m76.01 211.28c0 9.33-7.562 16.89-16.891 16.89s-16.891-7.56-16.891-16.89 7.562-16.89 16.891-16.89 16.891 7.56 16.891 16.89z" stroke-width="2" fill="#fff" transform="translate(941.34 284.01)"/>
    </g>
    <path id="path4281-8-0" d="m-126.57 704.93v260.41" stroke="#000" stroke-width="2" fill="none"/>
    <path id="front_left_headlight" d="m-153.88 992.49v-26.04h45.05v52.05h-45.05v-26.01z" stroke-width="0" fill="#ffffc0"/>
    <path id="front_right_headlight" d="m-153.88 675.78v-27.45h45.05v54.9h-45.05v-27.45z" stroke-width="0" fill="#ffffc0"/>
    <path id="path4377" d="m-157.39 624.38s-4.23-12.67-18.3-12.67c-14.08 0-14.08 8.45-14.08 8.45v423.64s1.41 9.9 14.08 9.9c12.66 0 18.3-9.9 18.3-9.9" stroke="#000" stroke-width="5" fill="none"/>
    <path id="path4381" d="m-191.18 624.38s-35.19-1.41-35.19 21.11v371.61c0 22.5 36.6 25.3 36.6 25.3" stroke="#000" stroke-width="5" fill="none"/>
    <rect id="rect4467" rx="7.7418" ry="6.2844" height="35.19" width="16.891" stroke="#000" y="648.31" x="-216.51" stroke-width="2" fill="none"/>
    <rect id="rect4467-6" rx="7.7418" ry="6.2844" height="35.19" width="16.891" stroke="#000" y="985.57" x="-216.51" stroke-width="2" fill="none"/>
    <rect id="rect4487" height="377.24" width="30.967" stroke="#000" y="645.49" x="-62.939" stroke-width="2" fill="none"/>
    <path id="right_rear_light_c" d="m1200.9 633.86v73.19h67.6v-83.05l-25.3-14.07z" stroke="#000" stroke-width="5" fill="none"/>
    <path id="path4501" d="m1200.9 963.24h67.6v78.86l-23.9 14-43.7-18.3z" stroke="#000" stroke-width="5" fill="none"/>
    <path id="path4503" d="m1200.9 692.98v284.33" stroke="#000" stroke-width="5" fill="none"/>
    <path id="path4505" d="m1268.5 693.57v284.33" stroke="#000" stroke-width="5" fill="none"/>
    <rect id="rect4534" height="147.8" width="14.076" stroke="#000" y="759.51" x="1216.6" stroke-width="2" fill="none"/>
    <path id="path4536" d="m1224.2 758.1v-53.49" stroke="#000" stroke-width="2" fill="none"/>
    <path id="path4536-0" d="m1224.2 961.98v-53.49" stroke="#000" stroke-width="2" fill="none"/>
    <path id="path4556" d="m1254.6 707.43v256.18" stroke="#000" stroke-width="2" fill="none"/>
    <path id="path4377-2" d="m1268.8 624.97s4.2-12.67 18.3-12.67c14 0 14 8.45 14 8.45v423.65s-1.4 9.9-14 9.9c-12.7 0-18.3-9.9-18.3-9.9" stroke="#000" stroke-width="5" fill="none"/>
    <path id="path4381-0" d="m1302.5 624.97s35.2-1.41 35.2 21.12v371.61c0 22.5-36.6 25.3-36.6 25.3" stroke="#000" stroke-width="5" fill="none"/>
    <rect id="rect4467-5" transform="scale(-1,1)" rx="7.7418" ry="6.2844" height="35.19" width="16.891" stroke="#000" y="648.9" x="-1329.9" stroke-width="2" fill="none"/>
    <rect id="rect4467-6-5" transform="scale(-1,1)" rx="7.7418" ry="6.2844" height="35.19" width="16.891" stroke="#000" y="986.17" x="-1329.9" stroke-width="2" fill="none"/>
    <path id="right_rear_light"
        d="m 1457.8743,415.93571 0.016,-34.56038 19.0663,-10.75212 c 10.4865,-5.91367 19.5341,-10.81612 20.1057,-10.89435 0.5716,-0.0782 5.8777,2.57696 11.7914,5.90042 l 10.7521,6.04265 0.1581,39.41208 0.1581,39.41208 -31.032,0 -31.0321,0 0.016,-34.56038 z"
        transform="translate(-254,254)"
        stroke-width="0" fill="#ffffc0"/>
    <path id="left_rear_light"
        d="m 1477.9846,790.40091 -20.1172,-8.43236 -0,-34.86759 -0,-34.86758 31.0275,0 31.0276,0 -4e-4,37.01801 -4e-4,37.01801 -10.7256,6.29767 c -5.899,3.46371 -10.8064,6.29059 -10.9053,6.28193 -0.099,-0.009 -9.2325,-3.81029 -20.2969,-8.44809 z"
        transform="translate(-254,254)"
        stroke-width="0" fill="#ffffc0"/>
    <path id="wheel_front_left" d="m195.66 202.84a76.01 76.01 0 1 1 -152.02 0 76.01 76.01 0 1 1 152.02 0z" transform="translate(78.489 1074.7)" stroke="#000" stroke-width="2" fill="#c8c8c8"/>
    <path id="path4612" d="m147.8 72.633a44.339 44.339 0 1 1 -88.681 0 44.339 44.339 0 1 1 88.681 0z" transform="translate(94.676 1204.9)" stroke="#000" stroke-width="2" fill="#fff"/>
    <path id="wheel_front_right" d="m195.66 202.84a76.01 76.01 0 1 1 -152.02 0 76.01 76.01 0 1 1 152.02 0z" transform="translate(78.489 187.66)" stroke="#000" stroke-width="2" fill="#c8c8c8"/>
    <path id="path4612-4" d="m147.8 72.633a44.339 44.339 0 1 1 -88.681 0 44.339 44.339 0 1 1 88.681 0z" transform="translate(94.676 317.86)" stroke="#000" stroke-width="2" fill="#fff"/>
    <path id="wheel_back_right" d="m195.66 202.84a76.01 76.01 0 1 1 -152.02 0 76.01 76.01 0 1 1 152.02 0z" transform="translate(773.03 187.66)" stroke="#000" stroke-width="2" fill="#c8c8c8"/>
    <path id="path4612-1" d="m147.8 72.633a44.339 44.339 0 1 1 -88.681 0 44.339 44.339 0 1 1 88.681 0z" transform="translate(789.21 317.86)" stroke="#000" stroke-width="2" fill="#fff"/>
    <path id="wheel_back_left" d="m195.66 202.84a76.01 76.01 0 1 1 -152.02 0 76.01 76.01 0 1 1 152.02 0z" transform="translate(773.03 1074.7)" stroke="#000" stroke-width="2" fill="#c8c8c8"/>
    <path id="path4612-3" d="m147.8 72.633a44.339 44.339 0 1 1 -88.681 0 44.339 44.339 0 1 1 88.681 0z" transform="translate(789.21 1204.9)" stroke="#000" stroke-width="2" fill="#fff"/>
    <path id="path3083" d="m1338.5 829.07h40.8" stroke="#000" stroke-width="5" fill="none"/>
    <path id="path3853" d="m-54.896 229.58a4.2228 4.2228 0 1 1 -8.446 0 4.2228 4.2228 0 1 1 8.446 0z" transform="translate(1441.3 600.31)" stroke="#000" stroke-width="5" fill="#3c3c3c"/>
    <path id="path3855" d="m778.06 845.37-38.71-38.71" stroke="#000" stroke-width="2" fill="none"/>
    <g id="g3952" stroke="#000" stroke-width="2" transform="translate(-13.78 15.524)" fill="#3c3c3c">
      <path id="path3857" d="m-77.418 188.76c0 2.33-1.89 4.22-4.223 4.22-2.332 0-4.222-1.89-4.222-4.22s1.89-4.22 4.222-4.22c2.333 0 4.223 1.89 4.223 4.22z" transform="translate(-79.458 449.8)"/>
      <path id="path3857-2" d="m-77.418 188.76c0 2.33-1.89 4.22-4.223 4.22-2.332 0-4.222-1.89-4.222-4.22s1.89-4.22 4.222-4.22c2.333 0 4.223 1.89 4.223 4.22z" transform="translate(-79.458 569.92)"/>
      <path id="path3857-3" d="m-77.418 188.76c0 2.33-1.89 4.22-4.223 4.22-2.332 0-4.222-1.89-4.222-4.22s1.89-4.22 4.222-4.22c2.333 0 4.223 1.89 4.223 4.22z" transform="translate(-79.458 690.03)"/>
      <path id="path3857-7" d="m-77.418 188.76c0 2.33-1.89 4.22-4.223 4.22-2.332 0-4.222-1.89-4.222-4.22s1.89-4.22 4.222-4.22c2.333 0 4.223 1.89 4.223 4.22z" transform="translate(-79.458 810.15)"/>
    </g>
    <g id="g3946" stroke="#000" stroke-width="2" transform="translate(-13.78 17.524)" fill="#3c3c3c">
      <path id="path3857-97" d="m-77.418 188.76c0 2.33-1.89 4.22-4.223 4.22-2.332 0-4.222-1.89-4.222-4.22s1.89-4.22 4.222-4.22c2.333 0 4.223 1.89 4.223 4.22z" transform="translate(1381.6 448.25)"/>
      <path id="path3857-2-3" d="m-77.418 188.76c0 2.33-1.89 4.22-4.223 4.22-2.332 0-4.222-1.89-4.222-4.22s1.89-4.22 4.222-4.22c2.333 0 4.223 1.89 4.223 4.22z" transform="translate(1381.6 568.36)"/>
      <path id="path3857-3-6" d="m-77.418 188.76c0 2.33-1.89 4.22-4.223 4.22-2.332 0-4.222-1.89-4.222-4.22s1.89-4.22 4.222-4.22c2.333 0 4.223 1.89 4.223 4.22z" transform="translate(1381.6 688.48)"/>
      <path id="path3857-7-1" d="m-77.418 188.76c0 2.33-1.89 4.22-4.223 4.22-2.332 0-4.222-1.89-4.222-4.22s1.89-4.22 4.222-4.22c2.333 0 4.223 1.89 4.223 4.22z" transform="translate(1381.6 808.59)"/>
    </g>
  </g>
  <metadata>
    <rdf:RDF>
      <cc:Work>
        <dc:format>image/svg+xml</dc:format>
        <dc:type rdf:resource="http://purl.org/dc/dcmitype/StillImage"/>
        <cc:license rdf:resource="http://creativecommons.org/licenses/publicdomain/"/>
        <dc:publisher>
          <cc:Agent rdf:about="http://openclipart.org/">
            <dc:title>Openclipart</dc:title>
          </cc:Agent>
        </dc:publisher>
        <dc:title>unfolded car</dc:title>
        <dc:date>2011-05-04T09:13:55</dc:date>
        <dc:description>A default unfolded model of a car for damage/repair indication in a body shop</dc:description>
        <dc:source>http://openclipart.org/detail/135685/unfolded-car-by-tobias-moon</dc:source>
        <dc:creator>
          <cc:Agent>
            <dc:title>Tobias Moon</dc:title>
          </cc:Agent>
        </dc:creator>
        <dc:subject>
          <rdf:Bag>
            <rdf:li>automobile</rdf:li>
            <rdf:li>berline</rdf:li>
            <rdf:li>body</rdf:li>
            <rdf:li>car</rdf:li>
            <rdf:li>clip art</rdf:li>
            <rdf:li>clipart</rdf:li>
            <rdf:li>cutout</rdf:li>
            <rdf:li>damage</rdf:li>
            <rdf:li>details</rdf:li>
            <rdf:li>flat</rdf:li>
            <rdf:li>indicator</rdf:li>
            <rdf:li>model</rdf:li>
            <rdf:li>parts</rdf:li>
            <rdf:li>repair</rdf:li>
            <rdf:li>sedan</rdf:li>
            <rdf:li>unfold</rdf:li>
            <rdf:li>vehicle</rdf:li>
          </rdf:Bag>
        </dc:subject>
      </cc:Work>
      <cc:License rdf:about="http://creativecommons.org/licenses/publicdomain/">
        <cc:permits rdf:resource="http://creativecommons.org/ns#Reproduction"/>
        <cc:permits rdf:resource="http://creativecommons.org/ns#Distribution"/>
        <cc:permits rdf:resource="http://creativecommons.org/ns#DerivativeWorks"/>
      </cc:License>
    </rdf:RDF>
  </metadata>
</svg>
